#!OML:ASF X:\für Bonn\!DataBase\2005_08_10_Bjorn_Final\c3d\bjorn.ASF
:FULLY-SPECIFIED
:DEGREES
172
root 4.20219 9.01577 0.471542 464.961 82.6931 -605.472
lowerback 40.7113 -2.27708 5.79916
upperback 20.2977 2.96101 4.22832
thorax 2.90885 3.13883 0.651054
lowerneck -9.2599 -6.26397 2.35215
upperneck -1.7114 -8.44557 -5.93806
head 0.659064 -4.30217 -2.549
rclavicle 3.81667e-014 4.29375e-014
rhumerus 10.1743 -29.3046 -73.8046
rradius 15.7946
rwrist 37.9164
rhand -45.498 25.4815
rfingers 7.12502
rthumb -18.2628 -3.68121
lclavicle 3.81667e-014 4.29375e-014
lhumerus -0.388642 -42.7333 65.8159
lradius 49.6524
lwrist -20.1752
lhand -25.7368 -16.2052
lfingers 7.12502
lthumb 0.799921 13.7731
rfemur -26.8645 -67.252 -69.1201
rtibia 147.268
rfoot -36.4261 78.5711
rtoes -9.38914
lfemur -80.5078 29.7457 -29.4177
ltibia 145.957
lfoot -30.7148 -9.97791
ltoes -29.1939
173
root 4.21238 9.13971 0.466933 465.152 82.721 -605.671
lowerback 40.3388 -2.11182 5.69632
upperback 20.1483 3.03835 4.26859
thorax 2.83699 3.13727 0.715136
lowerneck -9.4064 -6.09848 2.26464
upperneck -1.89166 -8.21481 -6.0272
head 0.637333 -4.18455 -2.55914
rclavicle 2.22639e-014 1.59028e-014
rhumerus 10.1943 -29.904 -74.0869
rradius 15.6426
rwrist 38.2784
rhand -45.2466 24.7279
rfingers 7.12502
rthumb -18.0209 -4.45721
lclavicle 2.22639e-014 1.59028e-014
lhumerus -0.256668 -43.1352 64.9511
lradius 50.2692
lwrist -19.2503
lhand -25.7226 -15.9125
lfingers 7.12502
lthumb 0.813697 14.0656
rfemur -32.4772 -65.912 -61.7171
rtibia 146.486
rfoot -31.927 77.1651
rtoes -10.0255
lfemur -80.1113 27.7534 -29.5356
ltibia 145.105
lfoot -30.3477 -9.28216
ltoes -28.8733
174
root 4.22251 9.26806 0.461175 465.495 82.7441 -605.7
lowerback 39.9765 -1.97498 5.62153
upperback 19.9841 3.09232 4.28993
thorax 2.7499 3.12754 0.752045
lowerneck -9.4766 -5.9474 2.14511
upperneck -2.08511 -8.00131 -6.07185
head 0.600356 -4.07341 -2.54548
rclavicle 1.59028e-014 1.43125e-014
rhumerus 10.1369 -30.4325 -74.3528
rradius 15.5496
rwrist 38.6026
rhand -44.9881 24.2681
rfingers 7.12502
rthumb -17.7722 -4.93974
lclavicle 1.59028e-014 1.43125e-014
lhumerus -0.140367 -43.5658 64.1047
lradius 50.8651
lwrist -18.1572
lhand -25.7396 -15.5169
lfingers 7.12502
lthumb 0.79725 14.4614
rfemur -37.7204 -64.0831 -54.6245
rtibia 145.653
rfoot -28.2084 75.5766
rtoes -10.6524
lfemur -79.6661 25.8125 -29.6337
ltibia 144.216
lfoot -30.0215 -8.54501
ltoes -28.7162
175
root 4.23244 9.40029 0.456151 465.763 82.7522 -605.794
lowerback 39.6053 -1.82957 5.53029
upperback 19.8166 3.14991 4.29567
thorax 2.66341 3.11936 0.780229
lowerneck -9.5085 -5.80575 2.13708
upperneck -2.27174 -7.81165 -6.20561
head 0.550279 -3.97553 -2.57982
rclavicle 3.81667e-014 2.54444e-014
rhumerus 10.0683 -30.9302 -74.6161
rradius 15.4488
rwrist 38.9497
rhand -44.7282 23.9048
rfingers 7.12502
rthumb -17.5221 -5.3256
lclavicle 3.81667e-014 2.54444e-014
lhumerus -0.0683451 -43.9869 63.246
lradius 51.5347
lwrist -16.989
lhand -25.7713 -15.134
lfingers 7.12502
lthumb 0.7666 14.8443
rfemur -42.3487 -61.8618 -48.157
rtibia 144.791
rfoot -25.2394 73.7932
rtoes -11.3781
lfemur -79.1908 24.0368 -29.7317
ltibia 143.282
lfoot -29.7103 -7.86386
ltoes -28.5771
176
root 4.24332 9.536 0.451431 465.998 82.7794 -605.932
lowerback 39.2308 -1.6846 5.48636
upperback 19.6207 3.2175 4.2666
thorax 2.55325 3.11976 0.743775
lowerneck -9.501 -5.67837 2.23087
upperneck -2.45463 -7.65307 -6.3661
head 0.488727 -3.89409 -2.64043
rclavicle 2.8625e-014 -1.59028e-015
rhumerus 9.89302 -31.3926 -74.8791
rradius 15.4045
rwrist 39.2884
rhand -44.4242 23.5404
rfingers 7.12502
rthumb -17.2295 -5.71581
lclavicle 2.8625e-014 -1.59028e-015
lhumerus 0.0225333 -44.4569 62.3359
lradius 52.1775
lwrist -15.7127
lhand -25.8477 -14.8186
lfingers 7.12502
lthumb 0.692859 15.16
rfemur -46.2886 -59.2915 -42.3672
rtibia 143.909
rfoot -23.22 71.8553
rtoes -12.3392
lfemur -78.7119 22.4515 -29.793
ltibia 142.334
lfoot -29.4741 -7.20427
ltoes -28.5764
177
root 4.25401 9.67434 0.446608 466.555 82.7937 -605.756
lowerback 38.8387 -1.55228 5.43967
upperback 19.4036 3.26662 4.2443
thorax 2.42582 3.10852 0.721065
lowerneck -9.42997 -5.56877 2.36581
upperneck -2.64181 -7.52246 -6.60812
head 0.409436 -3.82652 -2.73383
rclavicle 9.54166e-015 1.59028e-015
rhumerus 9.66815 -31.7677 -75.107
rradius 15.3687
rwrist 39.5693
rhand -44.1263 23.2434
rfingers 7.12502
rthumb -16.9428 -6.03766
lclavicle 9.54166e-015 1.59028e-015
lhumerus 0.02598 -44.7959 61.5607
lradius 52.7147
lwrist -14.5718
lhand -26.0667 -14.6634
lfingers 7.12502
lthumb 0.481353 15.3158
rfemur -49.4874 -56.4841 -37.3303
rtibia 143.003
rfoot -21.9652 69.7811
rtoes -13.3974
lfemur -78.2333 20.8853 -29.8391
ltibia 141.352
lfoot -29.2367 -6.59922
ltoes -28.4905
178
root 4.26454 9.81575 0.443039 467.04 82.8119 -605.643
lowerback 38.451 -1.41686 5.40138
upperback 19.1905 3.32425 4.2063
thorax 2.3055 3.10422 0.675975
lowerneck -9.41344 -5.47044 2.56164
upperneck -2.77664 -7.41135 -6.8873
head 0.352104 -3.77127 -2.85553
rclavicle 5.08889e-014 5.725e-014
rhumerus 9.43466 -32.1508 -75.3525
rradius 15.3603
rwrist 39.9612
rhand -43.813 22.8181
rfingers 7.12502
rthumb -16.6412 -6.48851
lclavicle 5.08889e-014 5.725e-014
lhumerus 0.0534185 -45.0621 60.7997
lradius 53.139
lwrist -13.5408
lhand -26.453 -14.5682
lfingers 7.12502
lthumb 0.108237 15.4115
rfemur -52.0338 -53.514 -32.9562
rtibia 142.073
rfoot -21.2334 67.6488
rtoes -14.5089
lfemur -77.7417 19.5214 -29.8636
ltibia 140.342
lfoot -29.0224 -6.02872
ltoes -28.5319
179
root 4.27623 9.95827 0.438984 467.75 82.8575 -605.282
lowerback 38.0782 -1.30055 5.39521
upperback 18.9527 3.37031 4.17391
thorax 2.15675 3.09455 0.622741
lowerneck -9.32776 -5.38432 2.74643
upperneck -2.89983 -7.31574 -7.16734
head 0.286509 -3.7228 -2.97434
rclavicle -3.49861e-014 3.49861e-014
rhumerus 9.09236 -32.2338 -75.4961
rradius 15.3815
rwrist 40.0621
rhand -43.4872 22.3811
rfingers 7.12502
rthumb -16.3275 -6.95153
lclavicle -3.49861e-014 3.49861e-014
lhumerus -0.160083 -45.1273 60.2674
lradius 53.6509
lwrist -12.7335
lhand -26.8035 -14.4499
lfingers 7.12502
lthumb -0.230316 15.5298
rfemur -53.9737 -50.4307 -29.1635
rtibia 141.121
rfoot -20.9558 65.4429
rtoes -15.7478
lfemur -77.2091 18.2918 -29.8397
ltibia 139.327
lfoot -28.8922 -5.44615
ltoes -28.7713
180
root 4.28785 10.1036 0.435851 468.552 82.8988 -604.865
lowerback 37.6742 -1.19212 5.37179
upperback 18.6995 3.39544 4.13219
thorax 2.00205 3.07162 0.575118
lowerneck -9.24418 -5.28944 2.94754
upperneck -3.00639 -7.20935 -7.46885
head 0.226177 -3.6694 -3.10476
rclavicle 1.27222e-014 1.74931e-014
rhumerus 8.7933 -32.3934 -75.6826
rradius 15.336
rwrist 40.3979
rhand -43.1748 22.0237
rfingers 7.12502
rthumb -16.0267 -7.33341
lclavicle 1.27222e-014 1.74931e-014
lhumerus -0.563197 -44.9355 59.9511
lradius 54.1643
lwrist -12.2296
lhand -27.2246 -14.3912
lfingers 7.12502
lthumb -0.636994 15.5876
rfemur -55.5513 -47.2885 -25.7692
rtibia 140.153
rfoot -20.3383 63.2212
rtoes -16.4606
lfemur -76.7131 17.1592 -29.8067
ltibia 138.28
lfoot -28.744 -5.0192
ltoes -28.6382
181
root 4.29945 10.2514 0.43319 469.471 82.9167 -604.313
lowerback 37.2966 -1.08806 5.35596
upperback 18.4307 3.42099 4.07658
thorax 1.82552 3.04988 0.508077
lowerneck -9.14023 -5.21426 3.17122
upperneck -3.10396 -7.13191 -7.76503
head 0.163143 -3.63053 -3.23863
rclavicle -1.59028e-015 3.18055e-015
rhumerus 8.41841 -32.3572 -75.7904
rradius 15.3088
rwrist 40.4127
rhand -42.7663 21.7852
rfingers 7.12502
rthumb -15.6333 -7.60314
lclavicle -1.59028e-015 3.18055e-015
lhumerus -0.942662 -44.7816 59.6337
lradius 54.6287
lwrist -11.742
lhand -27.7002 -14.2758
lfingers 7.12502
lthumb -1.09632 15.7011
rfemur -56.7011 -44.1812 -22.8265
rtibia 139.154
rfoot -19.9001 60.9854
rtoes -17.0544
lfemur -76.1848 16.052 -29.7651
ltibia 137.202
lfoot -28.5916 -4.62868
ltoes -28.6453
182
root 4.31091 10.4024 0.43133 470.556 82.9019 -603.63
lowerback 36.8693 -0.989307 5.31174
upperback 18.1636 3.42683 4.01964
thorax 1.66693 3.01634 0.461957
lowerneck -9.02889 -5.14578 3.3923
upperneck -3.19731 -7.06313 -8.05588
head 0.100045 -3.59573 -3.37134
rclavicle 0 9.54166e-015
rhumerus 8.08065 -32.3924 -75.9447
rradius 15.2677
rwrist 40.6419
rhand -42.3829 21.5342
rfingers 7.12502
rthumb -15.264 -7.8826
lclavicle 0 9.54166e-015
lhumerus -1.32118 -44.5581 59.3841
lradius 55.0439
lwrist -11.2384
lhand -28.1256 -14.1832
lfingers 7.12502
lthumb -1.50722 15.7912
rfemur -57.5433 -41.1872 -20.2826
rtibia 138.136
rfoot -19.5426 58.8507
rtoes -17.4058
lfemur -75.6897 14.9623 -29.7664
ltibia 136.095
lfoot -28.4183 -4.17128
ltoes -28.7739
183
root 4.32322 10.5548 0.428886 471.761 82.8988 -602.818
lowerback 36.4002 -0.903217 5.30186
upperback 17.9258 3.42843 3.95047
thorax 1.55978 2.9875 0.390443
lowerneck -8.89078 -5.08149 3.63095
upperneck -3.35953 -7.0055 -8.3016
head 0.0104077 -3.56454 -3.49058
rclavicle -2.70347e-014 -2.70347e-014
rhumerus 7.69998 -32.1322 -76.0263
rradius 15.2648
rwrist 40.5418
rhand -41.9892 21.2089
rfingers 7.12502
rthumb -14.8847 -8.23634
lclavicle -2.70347e-014 -2.70347e-014
lhumerus -1.61857 -44.3167 59.0984
lradius 55.4655
lwrist -10.7771
lhand -28.402 -13.9417
lfingers 7.12502
lthumb -1.77412 16.0306
rfemur -58.1344 -38.2935 -18.0007
rtibia 137.092
rfoot -19.4548 56.7103
rtoes -17.936
lfemur -75.179 13.9559 -29.7302
ltibia 134.975
lfoot -28.2565 -3.79458
ltoes -28.7321
